<svg xmlns="http://www.w3.org/2000/svg" width="36" height="36" viewBox="0 0 36 36">
  <g id="ico_linkedin" transform="translate(-1166 -1532)">
    <circle id="Elipse_4" data-name="Elipse 4" cx="18" cy="18" r="18" transform="translate(1166 1532)" fill="#fff"/>
    <path id="Icon_awesome-linkedin-in" data-name="Icon awesome-linkedin-in" d="M3.21,14.341H.237V4.767H3.21ZM1.722,3.461A1.73,1.73,0,1,1,3.444,1.723,1.736,1.736,0,0,1,1.722,3.461Zm12.616,10.88H11.371V9.68c0-1.111-.022-2.535-1.546-2.535-1.546,0-1.783,1.207-1.783,2.455v4.741H5.072V4.767H7.924V6.073h.042a3.124,3.124,0,0,1,2.813-1.546c3.009,0,3.562,1.981,3.562,4.555v5.259Z" transform="translate(1176.83 1542.829)"/>
  </g>
</svg>
