<svg xmlns="http://www.w3.org/2000/svg" width="36" height="36" viewBox="0 0 36 36">
  <g id="ico_instagram" transform="translate(-1086 -1532)">
    <circle id="Elipse_2" data-name="Elipse 2" cx="18" cy="18" r="18" transform="translate(1086 1532)" fill="#fff"/>
    <path id="Icon_awesome-instagram" data-name="Icon awesome-instagram" d="M8.593,6.425A4.407,4.407,0,1,0,13,10.832,4.4,4.4,0,0,0,8.593,6.425Zm0,7.272a2.865,2.865,0,1,1,2.865-2.865A2.87,2.87,0,0,1,8.593,13.7Zm5.615-7.452A1.028,1.028,0,1,1,13.18,5.217,1.026,1.026,0,0,1,14.208,6.245Zm2.919,1.043a5.087,5.087,0,0,0-1.388-3.6,5.12,5.12,0,0,0-3.6-1.388c-1.419-.081-5.673-.081-7.092,0a5.113,5.113,0,0,0-3.6,1.385,5.1,5.1,0,0,0-1.388,3.6c-.081,1.419-.081,5.673,0,7.092a5.087,5.087,0,0,0,1.388,3.6,5.127,5.127,0,0,0,3.6,1.388c1.419.081,5.673.081,7.092,0a5.087,5.087,0,0,0,3.6-1.388,5.12,5.12,0,0,0,1.388-3.6c.081-1.419.081-5.669,0-7.088ZM15.293,15.9a2.9,2.9,0,0,1-1.634,1.634c-1.131.449-3.816.345-5.067.345s-3.939.1-5.067-.345A2.9,2.9,0,0,1,1.892,15.9c-.449-1.131-.345-3.816-.345-5.067s-.1-3.939.345-5.067A2.9,2.9,0,0,1,3.526,4.131c1.131-.449,3.816-.345,5.067-.345s3.939-.1,5.067.345a2.9,2.9,0,0,1,1.634,1.634c.449,1.131.345,3.816.345,5.067S15.742,14.771,15.293,15.9Z" transform="translate(1095.92 1539.168)"/>
  </g>
</svg>
