<svg xmlns="http://www.w3.org/2000/svg" width="36" height="36" viewBox="0 0 36 36">
  <g id="ico_twitter" transform="translate(-1126 -1532)">
    <circle id="Elipse_3" data-name="Elipse 3" cx="18" cy="18" r="18" transform="translate(1126 1532)" fill="#fff"/>
    <path id="Icon_awesome-twitter" data-name="Icon awesome-twitter" d="M15.726,6.929c.011.156.011.311.011.467A10.151,10.151,0,0,1,5.517,17.617,10.152,10.152,0,0,1,0,16a7.431,7.431,0,0,0,.868.044,7.2,7.2,0,0,0,4.46-1.535,3.6,3.6,0,0,1-3.359-2.491,4.53,4.53,0,0,0,.678.056,3.8,3.8,0,0,0,.945-.122A3.593,3.593,0,0,1,.712,8.43V8.386a3.618,3.618,0,0,0,1.624.456,3.6,3.6,0,0,1-1.112-4.8A10.211,10.211,0,0,0,8.631,7.8a4.055,4.055,0,0,1-.089-.823,3.6,3.6,0,0,1,6.217-2.458,7.073,7.073,0,0,0,2.28-.868,3.583,3.583,0,0,1-1.579,1.98,7.2,7.2,0,0,0,2.069-.556,7.722,7.722,0,0,1-1.8,1.857Z" transform="translate(1135.236 1539.619)"/>
  </g>
</svg>
